# xmcd CD database file
#
# Track frame offsets:
#	150
#	12722
#	25051
#	38244
#	50970
#	66300
#	83049
#	98322
#	109403
#	121489
#	133466
#
# Disc length: 1938 seconds
#
# Revision: 0
# Processed by: cddbd v1.5PL3 Copyright (c) Steve Scherf et al.
# Submitted via: CDex 1.40Release
#
DISCID=9d07900b
DTITLE=Roy Clark - Heart To Heart
DYEAR=1975
DGENRE=Country
TTITLE0=Heart To Heart
TTITLE1=Love Is A Two-Story Word
TTITLE2=Carry Me Back
TTITLE3=Before The Next Teardrop Falls
TTITLE4=(Hey Won't You Play) Another Somebody Done Somebody Wrong Song
TTITLE5=Before I Lose My Mind
TTITLE6=We've Got It All
TTITLE7=It Sure Looks Good On You
TTITLE8=Fields Of Need
TTITLE9=If I Had It To Do All Over Again
TTITLE10=Someone Cares For You
EXTD=YEAR: 1975 ID3G: 2
EXTT0=
EXTT1=
EXTT2=
EXTT3=
EXTT4=
EXTT5=
EXTT6=
EXTT7=
EXTT8=
EXTT9=
EXTT10=
PLAYORDER=
